<svg width="10" height="10" viewBox="0 0 10 10" fill="none" xmlns="http://www.w3.org/2000/svg">
<g clip-path="url(#clip0_1542_65)">
<path d="M8.65862 2.04007C8.66616 1.95433 8.62144 1.87244 8.54521 1.83248L5.09899 0.0244425C5.03692 -0.00814751 4.96284 -0.00814751 4.90077 0.0244425L1.45456 1.83248C1.37741 1.87295 1.33263 1.95624 1.34143 2.04291C1.34492 2.07749 1.43048 2.90185 1.70746 3.93632C2.02247 5.1128 2.44321 6.0485 2.96097 6.72631H2.17215C1.7791 6.72631 1.45933 7.04607 1.45933 7.43912V9.28718C1.45933 9.68024 1.7791 10 2.17215 10H7.82766C8.22071 10 8.54047 9.68024 8.54047 9.28718V7.43912C8.54047 7.04607 8.22071 6.72631 7.82766 6.72631H7.08426C7.60182 6.03395 8.0159 5.0911 8.31793 3.9155C8.58219 2.88684 8.65564 2.07416 8.65862 2.04007ZM2.41605 4.76648L6.81867 1.41082C6.81926 1.41037 6.81978 1.40984 6.82035 1.4094L8.06026 2.05992L2.94187 5.92159C2.73386 5.55721 2.56024 5.1616 2.41605 4.76648ZM4.99988 0.454269L6.40355 1.19069L2.27118 4.34039C1.96499 3.37313 1.82782 2.47938 1.78324 2.14186L4.99988 0.454269ZM7.82764 9.57332H2.17213C2.01434 9.57332 1.88599 9.44497 1.88599 9.28718V8.90445H8.11378V9.28718C8.11378 9.44495 7.98543 9.57332 7.82764 9.57332ZM7.82764 7.15298C7.98543 7.15298 8.11378 7.28133 8.11378 7.43912V8.47778H1.88599V7.43912C1.88599 7.28133 2.01434 7.15298 2.17213 7.15298H7.82764ZM3.51559 6.72631C3.39186 6.59038 3.27655 6.44208 3.16889 6.28486L8.16762 2.51344C8.02202 3.46495 7.59772 5.521 6.53535 6.72631H3.51559Z" fill="black"/>
</g>
<defs>
<clipPath id="clip0_1542_65">
<rect width="10" height="10" fill="white"/>
</clipPath>
</defs>
</svg>
