<svg width="10" height="10" viewBox="0 0 10 10" fill="none" xmlns="http://www.w3.org/2000/svg">
<g clip-path="url(#clip0_1543_996)">
<path d="M7.0835 0.833252H2.91683C1.76624 0.833252 0.833496 1.76599 0.833496 2.91659V7.08325C0.833496 8.23385 1.76624 9.16659 2.91683 9.16659H7.0835C8.23409 9.16659 9.16683 8.23385 9.16683 7.08325V2.91659C9.16683 1.76599 8.23409 0.833252 7.0835 0.833252Z" stroke="#2D2346" stroke-width="0.8" stroke-linecap="round" stroke-linejoin="round"/>
<path d="M6.66687 4.73738C6.71829 5.08415 6.65906 5.43831 6.4976 5.74947C6.33615 6.06064 6.08068 6.31297 5.76755 6.47058C5.45441 6.62819 5.09956 6.68305 4.75345 6.62735C4.40734 6.57166 4.0876 6.40825 3.83972 6.16037C3.59184 5.91248 3.42843 5.59275 3.37273 5.24664C3.31704 4.90053 3.3719 4.54567 3.52951 4.23254C3.68711 3.9194 3.93945 3.66394 4.25061 3.50248C4.56178 3.34102 4.91593 3.28179 5.2627 3.33321C5.61642 3.38567 5.94389 3.55049 6.19674 3.80334C6.44959 4.05619 6.61442 4.38366 6.66687 4.73738Z" stroke="#2D2346" stroke-width="0.8" stroke-linecap="round" stroke-linejoin="round"/>
<path d="M7.2915 2.70825H7.29817" stroke="#2D2346" stroke-width="0.8" stroke-linecap="round" stroke-linejoin="round"/>
</g>
<defs>
<clipPath id="clip0_1543_996">
<rect width="10" height="10" fill="white"/>
</clipPath>
</defs>
</svg>
