<svg width="10" height="10" viewBox="0 0 10 10" fill="none" xmlns="http://www.w3.org/2000/svg">
<g clip-path="url(#clip0_1543_1000)">
<path d="M6.6665 3.33325C7.32955 3.33325 7.96543 3.59664 8.43427 4.06549C8.90311 4.53433 9.1665 5.17021 9.1665 5.83325V8.74992H7.49984V5.83325C7.49984 5.61224 7.41204 5.40028 7.25576 5.244C7.09948 5.08772 6.88752 4.99992 6.6665 4.99992C6.44549 4.99992 6.23353 5.08772 6.07725 5.244C5.92097 5.40028 5.83317 5.61224 5.83317 5.83325V8.74992H4.1665V5.83325C4.1665 5.17021 4.4299 4.53433 4.89874 4.06549C5.36758 3.59664 6.00346 3.33325 6.6665 3.33325Z" stroke="#2D2346" stroke-width="0.8" stroke-linecap="round" stroke-linejoin="round"/>
<path d="M2.50016 3.75H0.833496V8.75H2.50016V3.75Z" stroke="#2D2346" stroke-width="0.8" stroke-linecap="round" stroke-linejoin="round"/>
<path d="M1.66683 2.49992C2.12707 2.49992 2.50016 2.12682 2.50016 1.66659C2.50016 1.20635 2.12707 0.833252 1.66683 0.833252C1.20659 0.833252 0.833496 1.20635 0.833496 1.66659C0.833496 2.12682 1.20659 2.49992 1.66683 2.49992Z" stroke="#2D2346" stroke-width="0.8" stroke-linecap="round" stroke-linejoin="round"/>
</g>
<defs>
<clipPath id="clip0_1543_1000">
<rect width="10" height="10" fill="white"/>
</clipPath>
</defs>
</svg>
