<svg width="10" height="10" viewBox="0 0 10 10" fill="none" xmlns="http://www.w3.org/2000/svg">
<g clip-path="url(#clip0_1543_1011)">
<path d="M9.1666 7.04996V8.29996C9.16707 8.416 9.1433 8.53086 9.09681 8.63719C9.05032 8.74351 8.98214 8.83895 8.89663 8.9174C8.81112 8.99585 8.71017 9.05558 8.60024 9.09275C8.49032 9.12993 8.37384 9.14374 8.25826 9.13329C6.97611 8.99398 5.74451 8.55585 4.66243 7.85413C3.65569 7.2144 2.80215 6.36086 2.16243 5.35413C1.45826 4.26713 1.02003 3.02954 0.883265 1.74163C0.872852 1.6264 0.886546 1.51028 0.923473 1.40064C0.960401 1.291 1.01975 1.19025 1.09775 1.1048C1.17575 1.01936 1.27068 0.951088 1.37651 0.904343C1.48234 0.857598 1.59674 0.833401 1.71243 0.833292H2.96243C3.16464 0.831302 3.36068 0.902908 3.514 1.03476C3.66732 1.16662 3.76746 1.34973 3.79576 1.54996C3.84852 1.94999 3.94637 2.34276 4.08743 2.72079C4.14349 2.86993 4.15562 3.03201 4.12239 3.18783C4.08916 3.34364 4.01196 3.48667 3.89993 3.59996L3.37076 4.12913C3.96391 5.17227 4.82762 6.03598 5.87076 6.62913L6.39993 6.09996C6.51322 5.98793 6.65625 5.91073 6.81206 5.8775C6.96788 5.84427 7.12996 5.8564 7.2791 5.91246C7.65713 6.05352 8.0499 6.15137 8.44993 6.20413C8.65233 6.23268 8.83718 6.33463 8.96932 6.49058C9.10146 6.64654 9.17167 6.84562 9.1666 7.04996Z" stroke="#2D2346" stroke-width="0.8" stroke-linecap="round" stroke-linejoin="round"/>
</g>
<defs>
<clipPath id="clip0_1543_1011">
<rect width="10" height="10" fill="white"/>
</clipPath>
</defs>
</svg>
