<svg width="8" height="10" viewBox="0 0 8 10" fill="none" xmlns="http://www.w3.org/2000/svg">
<path d="M7.5 3.75C7.5 7.321 3.75 9.375 3.75 9.375C3.75 9.375 0 7.321 0 3.75C0 2.75544 0.395088 1.80161 1.09835 1.09835C1.80161 0.395088 2.75544 0 3.75 0C4.74456 0 5.69839 0.395088 6.40165 1.09835C7.10491 1.80161 7.5 2.75544 7.5 3.75Z" fill="#E79654"/>
<path d="M5.5 3.97656C5.5 4.35367 5.34196 4.71533 5.06066 4.98198C4.77936 5.24863 4.39782 5.39844 4 5.39844C3.60218 5.39844 3.22064 5.24863 2.93934 4.98198C2.65804 4.71533 2.5 4.35367 2.5 3.97656C2.5 3.59946 2.65804 3.2378 2.93934 2.97114C3.22064 2.70449 3.60218 2.55469 4 2.55469C4.39782 2.55469 4.77936 2.70449 5.06066 2.97114C5.34196 3.2378 5.5 3.59946 5.5 3.97656Z" fill="white"/>
</svg>
