<svg width="10" height="10" viewBox="0 0 10 10" fill="none" xmlns="http://www.w3.org/2000/svg">
<path d="M1.04155 7.08333C0.750474 5.70969 0.750474 4.2903 1.04155 2.91667C1.07979 2.77717 1.15369 2.65003 1.25597 2.54775C1.35825 2.44547 1.48538 2.37158 1.62488 2.33333C3.85965 1.96311 6.14011 1.96311 8.37488 2.33333C8.51438 2.37158 8.64152 2.44547 8.74379 2.54775C8.84607 2.65003 8.91997 2.77717 8.95821 2.91667C9.24929 4.2903 9.24929 5.70969 8.95821 7.08333C8.91997 7.22283 8.84607 7.34997 8.74379 7.45225C8.64152 7.55452 8.51438 7.62842 8.37488 7.66667C6.14012 8.03697 3.85964 8.03697 1.62488 7.66667C1.48538 7.62842 1.35825 7.55452 1.25597 7.45225C1.15369 7.34997 1.07979 7.22283 1.04155 7.08333Z" stroke="#2D2346" stroke-width="0.8" stroke-linecap="round" stroke-linejoin="round"/>
<path d="M4.1665 6.25L6.24984 5L4.1665 3.75V6.25Z" stroke="#2D2346" stroke-width="0.8" stroke-linecap="round" stroke-linejoin="round"/>
</svg>
