<svg width="10" height="10" viewBox="0 0 10 10" fill="none" xmlns="http://www.w3.org/2000/svg">
<rect width="10" height="10" rx="2" fill="#EFEBFA"/>
<g clip-path="url(#clip0_1564_99)">
<path d="M5 7.5C6.38071 7.5 7.5 6.38071 7.5 5C7.5 3.61929 6.38071 2.5 5 2.5C3.61929 2.5 2.5 3.61929 2.5 5C2.5 6.38071 3.61929 7.5 5 7.5Z" stroke="#4E3E74" stroke-width="0.5" stroke-linecap="round" stroke-linejoin="round"/>
<path d="M5 2.5C4.35806 3.17404 4 4.06919 4 5C4 5.93082 4.35806 6.82596 5 7.5C5.64194 6.82596 6 5.93082 6 5C6 4.06919 5.64194 3.17404 5 2.5Z" stroke="#4E3E74" stroke-width="0.5" stroke-linecap="round" stroke-linejoin="round"/>
<path d="M2.5 5H7.5" stroke="#4E3E74" stroke-width="0.5" stroke-linecap="round" stroke-linejoin="round"/>
</g>
<defs>
<clipPath id="clip0_1564_99">
<rect width="6" height="6" fill="white" transform="translate(2 2)"/>
</clipPath>
</defs>
</svg>
