<svg width="10" height="10" viewBox="0 0 10 10" fill="none" xmlns="http://www.w3.org/2000/svg">
<rect width="10" height="10" rx="2" fill="#EFEBFA"/>
<g clip-path="url(#clip0_1564_96)">
<path d="M6.25 2.5H3.75C3.05964 2.5 2.5 3.05964 2.5 3.75V6.25C2.5 6.94036 3.05964 7.5 3.75 7.5H6.25C6.94036 7.5 7.5 6.94036 7.5 6.25V3.75C7.5 3.05964 6.94036 2.5 6.25 2.5Z" stroke="#4E3E74" stroke-width="0.5" stroke-linecap="round" stroke-linejoin="round"/>
<path d="M5.99993 4.84258C6.03078 5.05064 5.99524 5.26313 5.89837 5.44983C5.80149 5.63653 5.64821 5.78793 5.46033 5.88249C5.27245 5.97706 5.05954 6.00997 4.85187 5.97656C4.64421 5.94314 4.45237 5.8451 4.30364 5.69637C4.15491 5.54764 4.05686 5.35579 4.02344 5.14813C3.99003 4.94046 4.02294 4.72755 4.11751 4.53967C4.21207 4.35179 4.36347 4.19851 4.55017 4.10164C4.73687 4.00476 4.94937 3.96922 5.15743 4.00008C5.36966 4.03155 5.56614 4.13044 5.71785 4.28215C5.86956 4.43386 5.96846 4.63034 5.99993 4.84258Z" stroke="#4E3E74" stroke-width="0.5" stroke-linecap="round" stroke-linejoin="round"/>
<path d="M6.375 3.625H6.38033" stroke="#4E3E74" stroke-width="0.5" stroke-linecap="round" stroke-linejoin="round"/>
</g>
<defs>
<clipPath id="clip0_1564_96">
<rect width="6" height="6" fill="white" transform="translate(2 2)"/>
</clipPath>
</defs>
</svg>
