<svg width="10" height="10" viewBox="0 0 10 10" fill="none" xmlns="http://www.w3.org/2000/svg">
<rect width="10" height="10" rx="2" fill="#EFEBFA"/>
<g clip-path="url(#clip0_1564_100)">
<path d="M7.49986 6.23002V6.98002C7.50014 7.04965 7.48588 7.11857 7.45799 7.18236C7.4301 7.24616 7.38919 7.30342 7.33788 7.35049C7.28658 7.39756 7.226 7.4334 7.16005 7.4557C7.09409 7.47801 7.0242 7.48629 6.95486 7.48002C6.18557 7.39643 5.44661 7.13356 4.79736 6.71252C4.19332 6.32869 3.6812 5.81657 3.29736 5.21252C2.87486 4.56033 2.61192 3.81777 2.52986 3.04502C2.52361 2.97589 2.53183 2.90621 2.55399 2.84043C2.57614 2.77465 2.61175 2.7142 2.65855 2.66293C2.70535 2.61166 2.76231 2.5707 2.82581 2.54265C2.88931 2.51461 2.95795 2.50009 3.02736 2.50002H3.77736C3.89869 2.49883 4.01631 2.54179 4.1083 2.62091C4.20029 2.70002 4.26038 2.80989 4.27736 2.93002C4.30902 3.17004 4.36772 3.40571 4.45236 3.63252C4.486 3.72201 4.49328 3.81925 4.47334 3.91274C4.4534 4.00624 4.40708 4.09205 4.33986 4.16002L4.02236 4.47752C4.37825 5.10341 4.89647 5.62164 5.52236 5.97752L5.83986 5.66002C5.90783 5.59281 5.99365 5.54649 6.08714 5.52655C6.18063 5.50661 6.27788 5.51389 6.36736 5.54752C6.59418 5.63216 6.82984 5.69087 7.06986 5.72252C7.1913 5.73966 7.30221 5.80083 7.38149 5.8944C7.46078 5.98797 7.5029 6.10742 7.49986 6.23002Z" stroke="#4E3E74" stroke-width="0.5" stroke-linecap="round" stroke-linejoin="round"/>
</g>
<defs>
<clipPath id="clip0_1564_100">
<rect width="6" height="6" fill="white" transform="translate(2 2)"/>
</clipPath>
</defs>
</svg>
