<svg width="6" height="8" viewBox="0 0 6 8" fill="none" xmlns="http://www.w3.org/2000/svg">
<path fill-rule="evenodd" clip-rule="evenodd" d="M2.75 7.4375C2.75 7.4375 5.5 5.93123 5.5 3.3125C5.5 2.58315 5.21027 1.88368 4.69454 1.36796C4.17882 0.852231 3.47935 0.5625 2.75 0.5625C2.02065 0.5625 1.32118 0.852231 0.805456 1.36796C0.289731 1.88368 0 2.58315 0 3.3125C0 5.93123 2.75 7.4375 2.75 7.4375ZM3.71101 4.21599C3.9173 4.02045 4.0332 3.75523 4.0332 3.47869C4.0332 3.20214 3.9173 2.93693 3.71101 2.74138C3.50472 2.54584 3.22493 2.43598 2.9332 2.43598C2.64146 2.43598 2.36167 2.54584 2.15538 2.74138C1.94909 2.93693 1.8332 3.20214 1.8332 3.47869C1.8332 3.75523 1.94909 4.02045 2.15538 4.21599C2.36167 4.41154 2.64146 4.5214 2.9332 4.5214C3.22493 4.5214 3.50472 4.41154 3.71101 4.21599Z" fill="#E79654"/>
</svg>
