<svg width="10" height="10" viewBox="0 0 10 10" fill="none" xmlns="http://www.w3.org/2000/svg">
<rect width="10" height="10" rx="2" fill="#EFEBFA"/>
<g clip-path="url(#clip0_1564_98)">
<path d="M2.62512 6.25C2.45048 5.42582 2.45048 4.57418 2.62512 3.75C2.64807 3.6663 2.69241 3.59002 2.75378 3.52865C2.81514 3.46728 2.89143 3.42295 2.97512 3.4C4.31599 3.17786 5.68426 3.17786 7.02512 3.4C7.10882 3.42295 7.1851 3.46728 7.24647 3.52865C7.30784 3.59002 7.35218 3.6663 7.37512 3.75C7.54977 4.57418 7.54977 5.42582 7.37512 6.25C7.35218 6.3337 7.30784 6.40998 7.24647 6.47135C7.1851 6.53271 7.10882 6.57705 7.02512 6.6C5.68427 6.82218 4.31598 6.82218 2.97512 6.6C2.89143 6.57705 2.81514 6.53271 2.75378 6.47135C2.69241 6.40998 2.64807 6.3337 2.62512 6.25Z" stroke="#4E3E74" stroke-width="0.5" stroke-linecap="round" stroke-linejoin="round"/>
<path d="M4.5 5.75L5.75 5L4.5 4.25V5.75Z" stroke="#4E3E74" stroke-width="0.5" stroke-linecap="round" stroke-linejoin="round"/>
</g>
<defs>
<clipPath id="clip0_1564_98">
<rect width="6" height="6" fill="white" transform="translate(2 2)"/>
</clipPath>
</defs>
</svg>
